HIERARCHY
ROOT Hips
{
	OFFSET 0.000000 0.000000 0.000000
	CHANNELS 6 Xposition Yposition Zposition Xrotation Yrotation Zrotation
	JOINT LeftUpLeg_virtual
	{
		OFFSET 0.000000 0.000000 0.000000
		CHANNELS 3 Xrotation Yrotation Zrotation
		JOINT LeftUpLeg
		{
			OFFSET 11.394100 -6.187798 -0.413800
			CHANNELS 3 Xrotation Yrotation Zrotation
			JOINT LeftLeg
			{
				OFFSET 0.430247 -32.302673 3.732800
				CHANNELS 3 Xrotation Yrotation Zrotation
				JOINT LeftFoot
				{
					OFFSET -0.430247 -48.264931 -6.423300
					CHANNELS 3 Xrotation Yrotation Zrotation
					JOINT LeftToeBase
					{
						OFFSET 4.230900 -16.068199 23.438400
						CHANNELS 3 Xrotation Yrotation Zrotation
						JOINT LeftToe_End
						{
							OFFSET 4.510700 0.695400 19.974600
							CHANNELS 3 Xrotation Yrotation Zrotation
							End Site
							{
								OFFSET 0 0 0
							}
						}
					}
				}
			}
		}
	}
	JOINT RightUpLeg_virtual
	{
		OFFSET 0.000000 0.000000 0.000000
		CHANNELS 3 Xrotation Yrotation Zrotation
		JOINT RightUpLeg
		{
			OFFSET -11.333700 -6.187798 -0.413800
			CHANNELS 3 Xrotation Yrotation Zrotation
			JOINT RightLeg
			{
				OFFSET -0.430392 -32.302628 3.733000
				CHANNELS 3 Xrotation Yrotation Zrotation
				JOINT RightFoot
				{
					OFFSET 0.430392 -48.264973 -6.423500
					CHANNELS 3 Xrotation Yrotation Zrotation
					JOINT RightToeBase
					{
						OFFSET -4.230900 -16.068199 23.438400
						CHANNELS 3 Xrotation Yrotation Zrotation
						JOINT RightToe_End
						{
							OFFSET -4.510700 0.695400 19.974600
							CHANNELS 3 Xrotation Yrotation Zrotation
							End Site
							{
								OFFSET 0 0 0
							}
						}
					}
				}
			}
		}
	}
	JOINT Spine_virtual
	{
		OFFSET 0.000000 0.000000 0.000000
		CHANNELS 3 Xrotation Yrotation Zrotation
		JOINT Spine
		{
			OFFSET -0.002400 12.777504 0.315300
			CHANNELS 3 Xrotation Yrotation Zrotation
			JOINT Spine1
			{
				OFFSET -0.002067 5.816869 0.032633
				CHANNELS 3 Xrotation Yrotation Zrotation
				JOINT Spine1_split
				{
					OFFSET -0.002067 5.816869 0.032633
					CHANNELS 3 Xrotation Yrotation Zrotation
					JOINT Spine2
					{
						OFFSET -0.002067 5.816869 0.032633
						CHANNELS 3 Xrotation Yrotation Zrotation
						JOINT Neck_virtual
						{
							OFFSET 0.000000 0.000000 0.000000
							CHANNELS 3 Xrotation Yrotation Zrotation
							JOINT Neck
							{
								OFFSET -0.003700 21.199493 -0.826900
								CHANNELS 3 Xrotation Yrotation Zrotation
								JOINT Head
								{
									OFFSET 0.000000 20.442200 4.834800
									CHANNELS 3 Xrotation Yrotation Zrotation
									JOINT HeadTop_End
									{
										OFFSET 0.000000 34.668396 4.968400
										CHANNELS 3 Xrotation Yrotation Zrotation
										End Site
										{
											OFFSET 0 0 0
										}
									}
								}
							}
						}
						JOINT LeftShoulder_virtual
						{
							OFFSET 0.000000 0.000000 0.000000
							CHANNELS 3 Xrotation Yrotation Zrotation
							JOINT LeftShoulder
							{
								OFFSET 3.288150 8.794197 -1.372250
								CHANNELS 3 Xrotation Yrotation Zrotation
								JOINT LeftShoulder_split
								{
									OFFSET 3.288150 8.794197 -1.372250
									CHANNELS 3 Xrotation Yrotation Zrotation
									JOINT LeftArm
									{
										OFFSET 11.953299 -2.279007 -0.146200
										CHANNELS 3 Xrotation Yrotation Zrotation
										JOINT LeftForeArm
										{
											OFFSET 18.448900 0.000000 0.000000
											CHANNELS 3 Xrotation Yrotation Zrotation
											JOINT LeftHand
											{
												OFFSET 29.527798 0.000000 0.000000
												CHANNELS 3 Xrotation Yrotation Zrotation
												End Site
												{
													OFFSET 0 0 0
												}
											}
										}
									}
								}
							}
						}
						JOINT RightShoulder_virtual
						{
							OFFSET 0.000000 0.000000 0.000000
							CHANNELS 3 Xrotation Yrotation Zrotation
							JOINT RightShoulder
							{
								OFFSET -3.249400 8.794197 -1.372250
								CHANNELS 3 Xrotation Yrotation Zrotation
								JOINT RightShoulder_split
								{
									OFFSET -3.249400 8.794197 -1.372250
									CHANNELS 3 Xrotation Yrotation Zrotation
									JOINT RightArm
									{
										OFFSET -11.953299 -2.279007 -0.146200
										CHANNELS 3 Xrotation Yrotation Zrotation
										JOINT RightForeArm
										{
											OFFSET -18.448900 0.000000 0.000000
											CHANNELS 3 Xrotation Yrotation Zrotation
											JOINT RightHand
											{
												OFFSET -29.527802 0.000000 0.000000
												CHANNELS 3 Xrotation Yrotation Zrotation
												End Site
												{
													OFFSET 0 0 0
												}
											}
										}
									}
								}
							}
						}
					}
				}
			}
		}
	}
}
MOTION
Frames: 9
Frame Time: 0.03333333
7.365336 57.273430 -29.081144 0.000000 0.000000 0.000000 64.735515 4.061481 1.351360 4.542964 11.194188 13.103703 5.040564 -4.442657 -5.978421 -33.515185 28.258642 -3.272986 -22.044002 -11.187693 -5.373405 0.000000 0.000000 0.000000 63.387714 -3.713984 4.085044 -10.283012 -18.051767 -10.876451 7.060448 5.387046 -3.416599 -28.285135 -26.554773 7.381815 -20.348841 -1.629591 8.051675 0.000000 0.000000 0.000000 72.303980 0.730764 -0.000697 9.813927 2.436963 0.423484 -4.893425 -1.562692 1.834305 0.049912 0.439941 0.051814 0.000000 0.000000 0.000000 -2.778747 -0.088622 1.841224 -16.843597 11.318930 6.966554 -7.492684 -16.221221 -5.738165 0.000000 0.000000 0.000000 -3.238248 -0.840539 1.154456 1.358390 1.595824 3.339950 2.831619 0.886838 -4.332129 -42.126339 -64.267333 -49.167441 -2.400281 -14.168179 -2.218744 0.000000 0.000000 0.000000 -0.227386 -0.157993 1.766448 -2.841808 3.036065 11.905388 -3.881124 0.499891 3.248153 -47.917260 51.098018 53.668181 -28.217489 26.007554 14.239160 0.000000 0.000000 0.000000 
7.361332 57.159424 -29.068888 0.000000 0.000000 0.000000 64.478680 4.061461 1.506494 4.710507 11.385531 12.917910 4.694213 -4.375334 -6.004924 -33.996604 28.363018 -3.042265 -21.877185 -11.059824 -5.481850 0.000000 0.000000 0.000000 63.203511 -3.987483 4.338680 -10.532548 -18.199737 -11.042091 7.334526 5.419303 -3.372207 -28.266697 -26.270909 7.326689 -20.192746 -1.651027 8.125654 0.000000 0.000000 0.000000 72.430577 0.754486 0.249516 9.962678 2.487152 0.408014 -4.917246 -1.561439 1.846747 0.047392 0.413944 0.038618 0.000000 0.000000 0.000000 -2.740716 -0.087572 1.860136 -16.910290 11.279905 6.871924 -7.501783 -15.983312 -5.663779 0.000000 0.000000 0.000000 -3.238315 -0.849899 1.154057 1.417910 1.441388 3.438462 3.370565 0.826685 -4.064538 -42.944022 -63.961552 -49.868543 -2.350635 -14.337424 -2.238047 0.000000 0.000000 0.000000 -0.209017 -0.158161 1.830278 -2.764172 3.448258 11.889620 -3.741418 0.318817 3.079063 -48.402098 50.403682 53.634170 -28.148782 26.464692 14.419115 0.000000 0.000000 0.000000 
7.356928 57.042595 -29.104784 0.000000 0.000000 0.000000 64.280126 4.170431 1.562474 4.606873 11.535451 13.061238 4.362144 -4.444703 -6.176673 -33.797309 28.556217 -3.469410 -21.298251 -10.998678 -5.263611 0.000000 0.000000 0.000000 63.003202 -4.128133 4.466210 -10.747000 -18.500479 -11.276183 7.520962 5.458760 -3.307362 -28.172807 -25.672110 7.261953 -20.568630 -1.651721 8.245995 0.000000 0.000000 0.000000 72.487049 0.745633 0.536059 10.117108 2.577751 0.423843 -4.933026 -1.574933 1.859271 0.036430 0.379709 0.043082 0.000000 0.000000 0.000000 -2.679793 -0.098996 1.876965 -16.743171 11.240554 6.647792 -7.462230 -15.749445 -5.635642 0.000000 0.000000 0.000000 -3.187223 -0.877197 1.140616 1.462574 1.104300 3.700357 4.053179 1.013936 -3.822920 -43.197012 -63.889589 -50.185426 -2.061030 -14.943634 -2.100102 0.000000 0.000000 0.000000 -0.131975 -0.171082 1.890200 -2.752360 4.146882 11.848904 -3.698982 -0.003499 2.943695 -47.556695 49.306142 52.548258 -28.086783 28.237559 14.695645 0.000000 0.000000 0.000000 
7.351686 56.932701 -29.153307 0.000000 0.000000 0.000000 64.112650 4.430851 1.492914 4.277784 11.639472 13.468427 3.860602 -4.594896 -6.463069 -32.837818 28.784476 -4.393181 -20.955635 -11.021367 -4.738156 0.000000 0.000000 0.000000 62.855513 -4.108428 4.467769 -10.873899 -18.886161 -11.556027 7.638743 5.401758 -3.248112 -28.086708 -24.901586 7.102802 -21.407662 -1.653162 8.414217 0.000000 0.000000 0.000000 72.494071 0.711327 0.830524 10.245666 2.697384 0.477575 -4.922772 -1.613353 1.866661 0.019610 0.332615 0.053602 0.000000 0.000000 0.000000 -2.594957 -0.132553 1.892724 -16.365873 11.205100 6.306715 -7.459289 -15.526318 -5.663522 0.000000 0.000000 0.000000 -3.072597 -0.928565 1.114323 1.495504 0.642711 4.134321 4.691050 1.446475 -3.717942 -43.005166 -63.923918 -50.132673 -1.590489 -15.800736 -1.811587 0.000000 0.000000 0.000000 0.005336 -0.199888 1.943770 -2.814491 5.146644 11.745959 -3.734631 -0.355777 2.831774 -45.748867 47.867492 50.701071 -27.953686 30.975540 14.972912 0.000000 0.000000 0.000000 
7.348014 56.854393 -29.202803 0.000000 0.000000 0.000000 63.996222 4.843945 1.286389 3.925846 11.856058 13.980835 2.911274 -4.452883 -6.780374 -31.746508 28.923129 -4.990722 -21.319747 -11.132409 -4.038942 0.000000 0.000000 0.000000 62.781391 -3.988547 4.390503 -10.943687 -19.275521 -11.871116 7.751830 5.135134 -3.194892 -28.017928 -24.088808 6.805276 -22.357533 -1.639459 8.606088 0.000000 0.000000 0.000000 72.449196 0.717564 1.073627 10.315789 2.836346 0.578539 -4.872409 -1.694643 1.862034 -0.005970 0.270196 0.056462 0.000000 0.000000 0.000000 -2.457077 -0.198911 1.904680 -15.798456 11.175612 5.869763 -7.573267 -15.348313 -5.721004 0.000000 0.000000 0.000000 -2.872779 -1.013829 1.069764 1.514796 0.090109 4.712939 5.249926 1.978418 -3.776510 -42.479726 -63.907136 -49.637683 -1.053477 -16.691461 -1.417382 0.000000 0.000000 0.000000 0.214975 -0.251280 1.985332 -2.957207 6.462602 11.523498 -3.643400 -0.740524 2.632481 -43.560177 46.153183 48.446187 -27.697790 34.266711 15.156707 0.000000 0.000000 0.000000 
7.272120 56.852203 -29.223837 0.000000 0.000000 0.000000 63.943671 5.344156 0.993818 3.568604 12.231314 14.483969 1.590358 -4.035260 -7.003920 -30.543093 28.990270 -5.234011 -22.232833 -11.259737 -3.400920 0.000000 0.000000 0.000000 62.767738 -3.783979 4.258777 -11.007146 -19.571309 -12.161140 7.822336 4.589415 -3.135119 -28.014473 -23.323612 6.308577 -23.014480 -1.579726 8.814506 0.000000 0.000000 0.000000 72.442824 0.818714 1.243834 10.262888 2.998924 0.742016 -4.740742 -1.821982 1.838089 -0.033704 0.230507 0.053299 0.000000 0.000000 0.000000 -2.241722 -0.305064 1.904387 -15.086911 11.125153 5.358387 -7.850766 -15.232410 -5.807572 0.000000 0.000000 0.000000 -2.584580 -1.134659 0.998335 1.521792 -0.533084 5.373490 5.702732 2.447895 -3.981020 -41.678316 -63.727154 -48.655969 -0.582270 -17.466373 -1.005035 0.000000 0.000000 0.000000 0.512150 -0.329335 2.000592 -3.160516 8.094332 11.141895 -3.525398 -1.071933 2.368790 -41.502477 44.196416 46.042855 -27.231420 37.684189 15.127124 0.000000 0.000000 0.000000 
7.096999 56.920940 -29.217104 0.000000 0.000000 0.000000 63.989269 5.866365 0.630022 2.989704 12.672823 14.926064 0.228739 -3.423383 -7.011025 -29.242345 28.963523 -5.192673 -23.102973 -11.339191 -3.012527 0.000000 0.000000 0.000000 62.887095 -3.533510 4.055575 -11.062244 -19.761225 -12.322183 7.754613 3.720316 -3.071734 -28.128573 -22.667687 5.587902 -23.300077 -1.450302 9.015835 0.000000 0.000000 0.000000 72.564763 1.002918 1.358023 10.047639 3.156790 0.973646 -4.519201 -1.997553 1.786601 -0.047538 0.214500 0.041014 0.000000 0.000000 0.000000 -1.932966 -0.455272 1.883338 -14.270538 11.054022 4.799068 -8.268331 -15.180626 -5.899206 0.000000 0.000000 0.000000 -2.202594 -1.293992 0.889465 1.522893 -1.201322 6.074818 6.082791 2.779687 -4.340295 -40.534905 -63.345374 -47.092160 -0.320863 -18.083723 -0.682573 0.000000 0.000000 0.000000 0.891169 -0.441088 1.988283 -3.395385 9.989897 10.626763 -3.329736 -1.176742 2.135343 -39.920601 42.015072 43.633455 -26.544280 40.888132 14.849762 0.000000 0.000000 0.000000 
6.824921 57.094112 -29.177469 0.000000 0.000000 0.000000 64.232902 6.380342 0.212893 2.074027 13.041795 15.225514 -0.760762 -2.837526 -6.729186 -27.893637 28.803512 -5.148018 -23.849009 -11.360868 -2.704598 0.000000 0.000000 0.000000 63.129246 -3.222696 3.785636 -11.126130 -19.812553 -12.267805 7.456935 2.606895 -3.021432 -28.338520 -22.121304 4.728458 -23.262453 -1.231145 9.167383 0.000000 0.000000 0.000000 72.858577 1.215933 1.410860 9.671488 3.304520 1.256007 -4.222767 -2.213291 1.701478 -0.045940 0.214938 0.035495 0.000000 0.000000 0.000000 -1.546204 -0.644021 1.832190 -13.413285 10.955658 4.217412 -8.802091 -15.162743 -6.005289 0.000000 0.000000 0.000000 -1.748820 -1.487091 0.748802 1.516256 -1.897959 6.796594 6.436350 2.916879 -4.713093 -38.864374 -62.801752 -44.758322 -0.366246 -18.675709 -0.531176 0.000000 0.000000 0.000000 1.347057 -0.591136 1.930359 -3.621909 12.073251 9.987232 -3.070202 -1.230773 2.074904 -38.728450 39.825119 41.178019 -25.694270 43.674613 14.386552 0.000000 0.000000 0.000000 
6.416548 57.369339 -29.079805 0.000000 0.000000 0.000000 64.681106 6.858867 -0.213447 0.721200 13.245769 15.350070 -1.124250 -2.546403 -6.148175 -26.803993 28.433707 -5.281239 -24.446938 -11.367490 -2.290692 0.000000 0.000000 0.000000 63.486663 -2.938646 3.540725 -11.317384 -19.712419 -12.001464 6.951939 1.365044 -2.994797 -28.582335 -21.683518 3.804786 -22.840347 -0.935973 9.320268 0.000000 0.000000 0.000000 73.360685 1.418104 1.372836 9.141306 3.444650 1.563889 -3.826844 -2.446767 1.587744 -0.031132 0.224080 0.024585 0.000000 0.000000 0.000000 -1.111679 -0.861967 1.748730 -12.572143 10.817286 3.649155 -9.380762 -15.163018 -6.136306 0.000000 0.000000 0.000000 -1.218058 -1.701572 0.595022 1.512797 -2.613375 7.586698 6.694633 2.773034 -5.043732 -36.449899 -62.114123 -41.470948 -0.779353 -19.347493 -0.573146 0.000000 0.000000 0.000000 1.890322 -0.769320 1.818039 -3.798948 14.259955 9.316048 -2.765668 -1.297063 2.267175 -37.922675 37.811599 38.707894 -24.812406 45.887086 13.862639 0.000000 0.000000 0.000000 
